<?xml version="1.0" standalone="no"?>
<!DOCTYPE svg PUBLIC "-//W3C//DTD SVG 20010904//EN"
 "http://www.w3.org/TR/2001/REC-SVG-20010904/DTD/svg10.dtd">
<svg version="1.0" xmlns="http://www.w3.org/2000/svg"
 width="152.000000pt" height="152.000000pt" viewBox="0 0 152.000000 152.000000"
 preserveAspectRatio="xMidYMid meet">
<metadata>
Created by potrace 1.14, written by Peter Selinger 2001-2017
</metadata>
<g transform="translate(0.000000,152.000000) scale(0.100000,-0.100000)"
fill="#000000" stroke="none">
<path d="M221 1504 c-85 -30 -152 -90 -193 -172 l-23 -47 0 -525 0 -525 25
-49 c31 -63 96 -127 158 -157 l47 -24 505 -3 c555 -2 556 -2 645 59 50 34 70
58 104 123 l26 51 0 525 0 525 -25 50 c-32 63 -94 125 -156 156 l-49 24 -510
2 c-440 2 -516 0 -554 -13z"/>
</g>
</svg>
